<!-- Generator: Adobe Illustrator 18.1.1, SVG Export Plug-In  -->
<svg version="1.1"
	 xmlns="http://www.w3.org/2000/svg" xmlns:xlink="http://www.w3.org/1999/xlink" xmlns:a="http://ns.adobe.com/AdobeSVGViewerExtensions/3.0/"
	 x="0px" y="0px" width="1139px" height="491.9px" viewBox="0 0 1139 491.9" enable-background="new 0 0 1139 491.9"
	 xml:space="preserve">
<defs>
</defs>
<g>
	<path fill="#E06D94" stroke="#BA5A7F" stroke-miterlimit="10" d="M53.3,49.2L53.3,49.2c1.8-1.8,4.7-1.8,6.5,0l0,0
		c2.9,2.9,0.8,7.9-3.3,7.9h0C52.5,57,50.4,52.1,53.3,49.2z"/>
	<path opacity="0.2" fill="#E06D94" d="M45.8,37.6l6.2,6.3c0.5,0.5,0.5,1.3,0,1.8l0,0c-0.5,0.5-1.3,0.5-1.8,0l-6.2-6.3
		c-0.5-0.5-0.5-1.3,0-1.8l0,0C44.5,37.1,45.3,37.1,45.8,37.6z"/>
	<path opacity="0.2" fill="#E06D94" d="M69.7,39.5l-6.3,6.2c-0.5,0.5-1.3,0.5-1.8,0h0c-0.5-0.5-0.5-1.3,0-1.8l6.3-6.2
		c0.5-0.5,1.3-0.5,1.8,0l0,0C70.2,38.2,70.2,39,69.7,39.5z"/>
	<path opacity="0.2" fill="#E06D94" d="M57.9,38.7l0,4.6c0,0.7-0.6,1.3-1.3,1.3h0c-0.7,0-1.3-0.6-1.3-1.3l0-4.6
		c0-0.7,0.6-1.3,1.3-1.3l0,0C57.3,37.4,57.9,38,57.9,38.7z"/>
	<path fill="#AAD69D" stroke="#92BC84" stroke-miterlimit="10" d="M870.9,11.9L870.9,11.9c1.8-1.8,4.7-1.8,6.5,0v0
		c2.9,2.9,0.8,7.9-3.3,7.9l0,0C870,19.8,868,14.8,870.9,11.9z"/>
	<path opacity="0.2" fill="#AAD69C" d="M863.4,0.4l6.2,6.3c0.5,0.5,0.5,1.3,0,1.8v0c-0.5,0.5-1.3,0.5-1.8,0l-6.2-6.3
		c-0.5-0.5-0.5-1.3,0-1.8v0C862-0.1,862.9-0.1,863.4,0.4z"/>
	<path opacity="0.2" fill="#AAD69C" d="M887.3,2.3L881,8.4c-0.5,0.5-1.3,0.5-1.8,0v0c-0.5-0.5-0.5-1.3,0-1.8l6.3-6.2
		c0.5-0.5,1.3-0.5,1.8,0v0C887.8,0.9,887.8,1.8,887.3,2.3z"/>
	<path opacity="0.2" fill="#AAD69C" d="M875.5,1.4l0,4.6c0,0.7-0.6,1.3-1.3,1.3l0,0c-0.7,0-1.3-0.6-1.3-1.3l0-4.6
		c0-0.7,0.6-1.3,1.3-1.3v0C874.9,0.1,875.5,0.7,875.5,1.4z"/>
	<path fill="#C2E8F9" stroke="#A1C6D3" stroke-miterlimit="10" d="M1080.1,11.9L1080.1,11.9c1.8-1.8,4.7-1.8,6.5,0v0
		c2.9,2.9,0.8,7.9-3.3,7.9l0,0C1079.3,19.8,1077.2,14.8,1080.1,11.9z"/>
	<path opacity="0.2" fill="#C2E8F9" d="M1072.6,0.4l6.2,6.3c0.5,0.5,0.5,1.3,0,1.8v0c-0.5,0.5-1.3,0.5-1.8,0l-6.2-6.3
		c-0.5-0.5-0.5-1.3,0-1.8v0C1071.3-0.1,1072.1-0.1,1072.6,0.4z"/>
	<path opacity="0.2" fill="#C2E8F9" d="M1096.5,2.3l-6.3,6.2c-0.5,0.5-1.3,0.5-1.8,0v0c-0.5-0.5-0.5-1.3,0-1.8l6.3-6.2
		c0.5-0.5,1.3-0.5,1.8,0v0C1097,0.9,1097,1.8,1096.5,2.3z"/>
	<path opacity="0.2" fill="#C2E8F9" d="M1084.7,1.4l0,4.6c0,0.7-0.6,1.3-1.3,1.3l0,0c-0.7,0-1.3-0.6-1.3-1.3l0-4.6
		c0-0.7,0.6-1.3,1.3-1.3v0C1084.1,0.1,1084.7,0.7,1084.7,1.4z"/>
	<path fill="#E6E7E8" stroke="#A7A9AC" stroke-width="2" stroke-miterlimit="10" d="M447.1,456h-39.5c-9.9,0-17.9-8-17.9-17.9V291.6
		c0-11.6-10.8-21.1-24-21.1H81.1c-22.1,0-40.1-15.7-40.1-35.2v-21.3h30.6v15.5c0,7.8,7.2,14.1,16.1,14.1h161.2v-34h30.7v34h97.2
		c22.1,0,40.1,15.7,40.1,35.1V418c0,4,3.3,7.3,7.3,7.3h23.1V456z"/>
	<rect x="107.3" y="243.7" fill="#F1F2F2" stroke="#A7A9AC" stroke-miterlimit="10" width="6.3" height="26.9"/>
	<rect x="203" y="243.7" fill="#F1F2F2" stroke="#A7A9AC" stroke-miterlimit="10" width="6.3" height="26.9"/>
	<rect x="331.9" y="243.7" fill="#F1F2F2" stroke="#A7A9AC" stroke-miterlimit="10" width="6.3" height="26.9"/>
	<rect x="389.9" y="306.4" fill="#F1F2F2" stroke="#A7A9AC" stroke-miterlimit="10" width="26.9" height="6.3"/>
	<rect x="389.9" y="390.3" fill="#F1F2F2" stroke="#A7A9AC" stroke-miterlimit="10" width="26.9" height="6.3"/>
	<rect x="722.3" y="257.7" fill="#F1F2F2" stroke="#A7A9AC" stroke-miterlimit="10" width="26.9" height="6.3"/>
	<rect x="722.3" y="390.3" fill="#F1F2F2" stroke="#A7A9AC" stroke-miterlimit="10" width="26.9" height="6.3"/>
	<rect x="0.5" y="205.3" fill="#A7A9AC" stroke="#A7A9AC" stroke-miterlimit="10" width="111.8" height="8.8"/>
	<rect x="0.5" y="52" fill="#A7A9AC" stroke="#A7A9AC" stroke-miterlimit="10" width="111.8" height="8.8"/>
	<rect x="11.2" y="60.7" fill="#F1F2F2" stroke="#A7A9AC" stroke-miterlimit="10" width="90.4" height="144.5"/>
	<path fill="#E06D94" stroke="#BA5A7F" stroke-miterlimit="10" d="M101.6,116.8l-15.7-7.5c-8.1-3.9-17.9-4.5-26.4-1.1l-0.2,0.1
		l-19.4,9.9c-5.9,2.4-12.9,1.5-17.8-2.3l-10.9-8.5v97.9h90.4V116.8z"/>
	<circle fill="#E6E7E8" stroke="#BA5A7F" stroke-miterlimit="10" cx="26" cy="139.9" r="3.4"/>
	<circle fill="#E6E7E8" stroke="#BA5A7F" stroke-miterlimit="10" cx="61.8" cy="155.6" r="3.4"/>
	<circle fill="#E6E7E8" stroke="#BA5A7F" stroke-miterlimit="10" cx="39.4" cy="182" r="4.9"/>
	<circle fill="#E6E7E8" stroke="#BA5A7F" stroke-miterlimit="10" cx="79.3" cy="177.9" r="6"/>
	<circle fill="#E6E7E8" stroke="#BA5A7F" stroke-miterlimit="10" cx="79.3" cy="123.7" r="6.4"/>
	<rect x="208.3" y="205.3" fill="#A7A9AC" stroke="#A7A9AC" stroke-miterlimit="10" width="111.8" height="8.8"/>
	<polygon opacity="0.2" fill="#FFFFFF" points="102.2,60.8 102.2,60.8 29.9,206 102.2,206 	"/>
	<rect x="219" y="60.7" fill="#F1F2F2" stroke="#A7A9AC" stroke-miterlimit="10" width="90.4" height="144.5"/>
	<path fill="#FEF384" stroke="#D5C862" stroke-miterlimit="10" d="M309.4,150l-15.7-4.7c-8.1-2.4-17.9-2.8-26.4-0.7l-0.2,0
		l-19.4,6.2c-5.9,1.5-12.9,1-17.8-1.4l-10.9-5.3v61.2h90.4V150z"/>
	<circle fill="#F1F2F2" stroke="#D5C862" stroke-miterlimit="10" cx="256.3" cy="162.3" r="3.4"/>
	<path fill="none" stroke="#A7A9AC" stroke-width="3" stroke-miterlimit="10" d="M669.8,379.1c40.7,15.7,37.9,36.3,51,61.7
		c17.4,33.6,51.1,9.9,79,13.6c8.3,1.1,21.1,7.5,33.6,10.3c5.6,1.3,10.3,1.3,13.4,1.2"/>
	<circle fill="#F1F2F2" stroke="#D5C862" stroke-miterlimit="10" cx="237.1" cy="187" r="4.9"/>
	<rect x="350.3" y="478.4" fill="#D1D3D4" stroke="#A7A9AC" stroke-width="2" stroke-miterlimit="10" width="439.9" height="12.5"/>
	<circle fill="#F1F2F2" stroke="#D5C862" stroke-miterlimit="10" cx="285" cy="171.9" r="6"/>
	<rect x="887.2" y="358.6" fill="#E6E7E8" stroke="#A7A9AC" stroke-width="2" stroke-miterlimit="10" width="39.3" height="34.7"/>
	<polygon opacity="0.2" fill="#FFFFFF" points="309.9,61.2 309.9,61.2 237.6,205.7 309.9,205.7 	"/>
	
		<rect x="453.8" y="304.6" fill="#F1F2F2" stroke="#A7A9AC" stroke-width="2" stroke-miterlimit="10" width="232.9" height="173.9"/>
	<rect x="639.3" y="443.8" fill="#BCBEC0" stroke="#A7A9AC" stroke-width="2" stroke-miterlimit="10" width="3.9" height="18.7"/>
	<rect x="648.4" y="443.8" fill="#BCBEC0" stroke="#A7A9AC" stroke-width="2" stroke-miterlimit="10" width="3.9" height="18.7"/>
	<rect x="657.3" y="443.8" fill="#BCBEC0" stroke="#A7A9AC" stroke-width="2" stroke-miterlimit="10" width="3.9" height="18.7"/>
	<rect x="447.4" y="416" fill="#A7A9AC" stroke="#A7A9AC" stroke-miterlimit="10" width="5.9" height="50.1"/>
	<path fill="#E6E7E8" stroke="#A7A9AC" stroke-width="2" stroke-miterlimit="10" d="M691.9,456h39.5c9.9,0,17.9-8,17.9-17.9v-183
		c0-11.6,10.8-21.1,24-21.1h284.7c22.1,0,40.1-15.7,40.1-35.2v-21.3h-30.6v15.5c0,7.8-7.2,14.1-16.1,14.1H890.1v-34h-30.7v34h-97.2
		c-22.1,0-40.1,15.7-40.1,35.1V418c0,4-3.3,7.3-7.3,7.3h-23.1V456z"/>
	<rect x="1026.7" y="168.8" fill="#A7A9AC" stroke="#A7A9AC" stroke-miterlimit="10" width="111.8" height="8.8"/>
	<rect x="1026.7" y="15.5" fill="#A7A9AC" stroke="#A7A9AC" stroke-miterlimit="10" width="111.8" height="8.8"/>
	<rect x="1037.4" y="24.2" fill="#F1F2F2" stroke="#A7A9AC" stroke-miterlimit="10" width="90.4" height="144.5"/>
	<path fill="#C2E8F9" stroke="#A1C6D3" stroke-miterlimit="10" d="M1037.4,140.9l15.7-2.4c8.1-1.2,17.9-1.4,26.4-0.3l0.2,0l19.4,3.1
		c5.9,0.8,12.9,0.5,17.8-0.7l10.9-2.7v30.9h-90.4V140.9z"/>
	<circle fill="#F1F2F2" stroke="#A1C6D3" stroke-miterlimit="10" cx="1074.7" cy="158.9" r="3.4"/>
	<circle fill="#F1F2F2" stroke="#A1C6D3" stroke-miterlimit="10" cx="1096.6" cy="150.5" r="4.9"/>
	<circle fill="#F1F2F2" stroke="#A1C6D3" stroke-miterlimit="10" cx="1057.2" cy="148" r="2.5"/>
	<rect x="818.9" y="168.8" fill="#A7A9AC" stroke="#A7A9AC" stroke-miterlimit="10" width="111.8" height="8.8"/>
	<rect x="818.9" y="15.5" fill="#A7A9AC" stroke="#A7A9AC" stroke-miterlimit="10" width="111.8" height="8.8"/>
	<polygon opacity="0.2" fill="#FFFFFF" points="1036.9,24.2 1036.9,24.2 1109.1,168.8 1036.9,168.8 	"/>
	<rect x="721.9" y="266.3" fill="#F1F2F2" stroke="#A7A9AC" stroke-miterlimit="10" width="26.9" height="6.3"/>
	<rect x="829.6" y="24.2" fill="#F1F2F2" stroke="#A7A9AC" stroke-miterlimit="10" width="90.4" height="144.5"/>
	<path fill="#AAD69D" stroke="#92BC84" stroke-miterlimit="10" d="M829.6,51.5l15.7-10c8.1-5.2,17.9-6,26.4-1.5l0.2,0.1l2.9,2
		c13.6,9.2,31.4,9.2,44.9,0.1C919.9,42,920,42,920,42v126.8h-90.4V51.5z"/>
	<circle fill="#F1F2F2" stroke="#92BC84" stroke-miterlimit="10" cx="882.7" cy="125.8" r="3.4"/>
	<circle fill="#F1F2F2" stroke="#92BC84" stroke-miterlimit="10" cx="894.1" cy="102.9" r="5.8"/>
	<circle fill="#F1F2F2" stroke="#92BC84" stroke-miterlimit="10" cx="866.8" cy="89.9" r="2.1"/>
	<circle fill="#F1F2F2" stroke="#92BC84" stroke-miterlimit="10" cx="901.9" cy="150.5" r="4.9"/>
	<circle fill="#F1F2F2" stroke="#92BC84" stroke-miterlimit="10" cx="901.9" cy="59.2" r="4.9"/>
	<circle fill="#F1F2F2" stroke="#92BC84" stroke-miterlimit="10" cx="848" cy="143.5" r="6"/>
	<circle fill="#F1F2F2" stroke="#92BC84" stroke-miterlimit="10" cx="842" cy="113.6" r="4.8"/>
	<polygon opacity="0.2" fill="#FFFFFF" points="829.1,24.8 829.1,24.8 901.4,169.3 829.1,169.3 	"/>
	<rect x="686.7" y="415.7" fill="#A7A9AC" stroke="#A7A9AC" stroke-miterlimit="10" width="5.9" height="50.1"/>
	<rect x="899.1" y="368.4" fill="#F1F2F2" stroke="#A7A9AC" stroke-width="2" stroke-miterlimit="10" width="3.9" height="15.1"/>
	<rect x="910.9" y="368.4" fill="#F1F2F2" stroke="#A7A9AC" stroke-width="2" stroke-miterlimit="10" width="3.9" height="15.1"/>
	<path fill="#BCBEC0" stroke="#A7A9AC" stroke-width="2" stroke-miterlimit="10" d="M482.9,334.7H481c-2.4,0-4.3-1.9-4.3-4.3v-1.9
		c0-2.4,1.9-4.3,4.3-4.3h1.9c2.4,0,4.3,1.9,4.3,4.3v1.9C487.2,332.8,485.2,334.7,482.9,334.7z"/>
	<rect x="809.2" y="207.2" fill="#F1F2F2" stroke="#A7A9AC" stroke-miterlimit="10" width="6.3" height="26.9"/>
	<rect x="918.3" y="207.2" fill="#F1F2F2" stroke="#A7A9AC" stroke-miterlimit="10" width="6.3" height="26.9"/>
	<rect x="1027.7" y="207.2" fill="#F1F2F2" stroke="#A7A9AC" stroke-miterlimit="10" width="6.3" height="26.9"/>
	<path fill="#FFFFFF" stroke="#A7A9AC" stroke-width="2" stroke-miterlimit="10" d="M501.4,334.7h-1.9c-2.4,0-4.3-1.9-4.3-4.3v-1.9
		c0-2.4,1.9-4.3,4.3-4.3h1.9c2.4,0,4.3,1.9,4.3,4.3v1.9C505.7,332.8,503.8,334.7,501.4,334.7z"/>
	<path fill="#E6E7E8" stroke="#A7A9AC" stroke-width="2" stroke-miterlimit="10" d="M519.5,334.7h-1.9c-2.4,0-4.3-1.9-4.3-4.3v-1.9
		c0-2.4,1.9-4.3,4.3-4.3h1.9c2.4,0,4.3,1.9,4.3,4.3v1.9C523.8,332.8,521.8,334.7,519.5,334.7z"/>
	<rect x="563.7" y="325.7" fill="#FFFFFF" stroke="#A7A9AC" stroke-width="2" stroke-miterlimit="10" width="95.6" height="62.4"/>
	<path fill="#FEF384" stroke="#D5C862" stroke-miterlimit="10" d="M260.5,49.2L260.5,49.2c1.8-1.8,4.7-1.8,6.5,0v0
		c2.9,2.9,0.8,7.9-3.3,7.9l0,0C259.6,57,257.6,52.1,260.5,49.2z"/>
	<path fill="none" stroke="#A7A9AC" stroke-width="2" stroke-miterlimit="10" d="M579.3,367c6.7-11.3,15.6-22.8,24-21.5
		c10,1.5,12.1,20.4,21.2,21.2c4.6,0.4,11.3-3.7,20.5-23.1"/>
	<ellipse fill="#FFFFFF" stroke="#A7A9AC" stroke-width="2" stroke-miterlimit="10" cx="579.3" cy="367" rx="2.6" ry="2.7"/>
	<ellipse fill="#FFFFFF" stroke="#A7A9AC" stroke-width="2" stroke-miterlimit="10" cx="645.1" cy="343.6" rx="2.6" ry="2.7"/>
	<rect x="563.7" y="334.7" opacity="0.2" fill="#F1F2F2" stroke="#A7A9AC" stroke-miterlimit="10" width="95.6" height="2.4"/>
	<rect x="563.7" y="345.8" opacity="0.2" fill="#F1F2F2" stroke="#A7A9AC" stroke-miterlimit="10" width="95.6" height="2.4"/>
	<rect x="563.7" y="357" opacity="0.2" fill="#F1F2F2" stroke="#A7A9AC" stroke-miterlimit="10" width="95.6" height="2.4"/>
	<rect x="208.3" y="52" fill="#A7A9AC" stroke="#A7A9AC" stroke-miterlimit="10" width="111.8" height="8.8"/>
	<rect x="563.7" y="367.8" opacity="0.2" fill="#F1F2F2" stroke="#A7A9AC" stroke-miterlimit="10" width="95.6" height="2.4"/>
	<rect x="563.7" y="379.4" opacity="0.2" fill="#F1F2F2" stroke="#A7A9AC" stroke-miterlimit="10" width="95.6" height="2.4"/>
	<path opacity="0.2" fill="#FEF387" d="M252.9,37.6l6.2,6.3c0.5,0.5,0.5,1.3,0,1.8l0,0c-0.5,0.5-1.3,0.5-1.8,0l-6.2-6.3
		c-0.5-0.5-0.5-1.3,0-1.8v0C251.6,37.1,252.4,37.1,252.9,37.6z"/>
	<path opacity="0.2" fill="#FEF387" d="M276.8,39.5l-6.3,6.2c-0.5,0.5-1.3,0.5-1.8,0l0,0c-0.5-0.5-0.5-1.3,0-1.8l6.3-6.2
		c0.5-0.5,1.3-0.5,1.8,0v0C277.3,38.2,277.3,39,276.8,39.5z"/>
	<path opacity="0.2" fill="#FEF387" d="M265.1,38.7l0,4.6c0,0.7-0.6,1.3-1.3,1.3h0c-0.7,0-1.3-0.6-1.3-1.3l0-4.6
		c0-0.7,0.6-1.3,1.3-1.3l0,0C264.5,37.4,265.1,38,265.1,38.7z"/>
	<g>
		<rect x="875.5" y="458.3" fill="#A7A9AC" stroke="#A7A9AC" stroke-miterlimit="10" width="8.3" height="2.7"/>
		<rect x="875.5" y="471.7" fill="#A7A9AC" stroke="#A7A9AC" stroke-miterlimit="10" width="8.3" height="2.7"/>
	</g>
	<path fill="#F1F2F2" stroke="#A7A9AC" stroke-width="2" stroke-miterlimit="10" d="M860.1,449.6h16.1v33.5h-16.1
		c-7.6,0-13.8-6.2-13.8-13.8v-6C846.3,455.7,852.5,449.6,860.1,449.6z"/>
	<rect x="865.5" y="450.5" opacity="0.2" fill="#939598" width="2.9" height="31.6"/>
	<path fill="#A7A9AC" stroke="#A7A9AC" stroke-miterlimit="10" d="M611.5,304.1H529v-1.8c0-4.6,3.7-8.4,8.4-8.4h65.7
		c4.6,0,8.4,3.7,8.4,8.4V304.1z"/>
	<rect x="547.4" y="272.4" fill="#939598" width="45.7" height="16.8"/>
	<rect x="539.4" y="288.2" fill="#808285" width="60.1" height="5.2"/>
	<circle fill="#E6E7E8" stroke="#BCBEC0" stroke-width="2" stroke-miterlimit="10" cx="570.2" cy="237.8" r="44"/>
	<circle fill="#FFFFFF" stroke="#E6E7E8" stroke-miterlimit="10" cx="570.2" cy="237.8" r="37.4"/>
	<line fill="none" stroke="#D1D3D4" stroke-width="2" stroke-miterlimit="10" x1="570.3" y1="238.1" x2="591.7" y2="216.7"/>
	<circle fill="#D1D3D4" cx="590.8" cy="217.7" r="3.5"/>
	<circle fill="#F1F2F2" stroke="#E6E7E8" stroke-miterlimit="10" cx="570.2" cy="237.8" r="7"/>
	<rect x="568.6" y="200.7" fill="#E6E7E8" width="3.2" height="5.8"/>
	<rect x="568.6" y="269.7" fill="#E6E7E8" width="3.2" height="5.8"/>
	<rect x="600.6" y="236.5" fill="#E6E7E8" width="7.1" height="3.2"/>
	<rect x="532.8" y="236.5" fill="#E6E7E8" width="7.1" height="3.2"/>
</g>
</svg>

